<!-- Copyright 2026 Anvil contributors. Derived from the Apache-2.0 JetBrains ExpUI node-icon style; see LICENSE.txt. -->
<svg width="16" height="16" viewBox="0 0 16 16" fill="none" xmlns="http://www.w3.org/2000/svg">
  <circle cx="8" cy="8" r="6.5" fill="#E7EFFD" stroke="#3574F0"/>
  <path d="M10.65 5.65C10.15 4.91 9.27 4.5 8.12 4.5C6.56 4.5 5.48 5.29 5.48 6.47C5.48 7.55 6.2 8.16 7.68 8.52L8.5 8.72C9.39 8.94 9.75 9.22 9.75 9.69C9.75 10.25 9.15 10.62 8.24 10.62C7.29 10.62 6.57 10.24 6.15 9.52L5.25 10.07C5.82 11.02 6.86 11.5 8.2 11.5C9.8 11.5 10.83 10.73 10.83 9.57C10.83 8.48 10.14 7.88 8.62 7.5L7.82 7.3C6.93 7.08 6.56 6.8 6.56 6.34C6.56 5.78 7.18 5.4 8.08 5.4C8.84 5.4 9.46 5.7 9.8 6.22L10.65 5.65Z" fill="#3574F0"/>
</svg>
